<?xml version="1.0" standalone="no"?>
<!DOCTYPE svg PUBLIC "-//W3C//DTD SVG 20010904//EN"
 "http://www.w3.org/TR/2001/REC-SVG-20010904/DTD/svg10.dtd">
<svg version="1.0" xmlns="http://www.w3.org/2000/svg"
 width="120.000000pt" height="120.000000pt" viewBox="0 0 120.000000 120.000000"
 preserveAspectRatio="xMidYMid meet">

<g transform="translate(0.000000,120.000000) scale(0.100000,-0.100000)"
fill="#000000" stroke="none">
<path d="M0 600 l0 -600 600 0 600 0 0 600 0 600 -600 0 -600 0 0 -600z m1080
0 l0 -480 -480 0 -480 0 0 480 0 480 480 0 480 0 0 -480z"/>
<path d="M155 1038 c-3 -7 -4 -209 -3 -448 l3 -435 448 -3 447 -2 0 450 0 450
-445 0 c-347 0 -447 -3 -450 -12z m415 -168 l0 -50 -42 0 -43 -1 43 -25 c23
-14 42 -30 42 -35 0 -17 -30 -9 -87 26 -47 28 -68 35 -110 35 l-53 0 0 -35 c0
-24 -5 -35 -15 -35 -12 0 -15 16 -15 85 l0 85 140 0 140 0 0 -50z m88 -23 l3
-67 109 0 110 0 0 71 c0 52 3 70 13 67 8 -3 13 -32 15 -86 l3 -82 -141 0 -140
0 0 86 c0 64 3 85 13 82 7 -3 13 -29 15 -71z m-338 -192 c0 -35 0 -35 47 -35
34 0 62 9 109 35 103 58 129 43 28 -16 l-47 -27 59 -38 c79 -51 46 -60 -36
-10 -47 29 -68 36 -109 36 l-51 0 0 -35 c0 -24 -5 -35 -15 -35 -12 0 -15 16
-15 80 0 64 3 80 15 80 10 0 15 -11 15 -35z m590 -45 c0 -64 -3 -80 -15 -80
-10 0 -15 11 -15 35 l0 35 -110 0 -110 0 0 -35 c0 -24 -5 -35 -15 -35 -12 0
-15 16 -15 80 l0 80 140 0 140 0 0 -80z m-517 -175 c32 -19 61 -35 65 -35 4 0
33 16 65 35 85 51 87 50 87 -50 0 -71 -2 -83 -15 -79 -11 5 -15 22 -15 65 0
32 -2 59 -5 59 -2 0 -27 -13 -55 -30 -28 -16 -56 -30 -63 -30 -7 0 -34 14 -62
30 -27 16 -53 30 -57 30 -4 0 -8 -28 -10 -62 -2 -38 -7 -61 -13 -58 -10 5 -17
138 -8 153 8 13 28 7 86 -28z m497 20 c0 -11 -12 -15 -51 -15 l-50 0 3 -52 3
-53 48 -3 c32 -2 47 -7 44 -15 -6 -18 -217 -20 -217 -2 0 9 15 15 48 17 l47 3
3 53 3 52 -50 0 c-39 0 -51 4 -51 15 0 12 19 15 110 15 91 0 110 -3 110 -15z"/>
<path d="M320 870 c0 -19 7 -20 110 -20 103 0 110 1 110 20 0 19 -7 20 -110
20 -103 0 -110 -1 -110 -20z"/>
<path d="M660 645 l0 -26 108 3 c102 3 107 4 110 26 3 22 2 22 -107 22 l-111
0 0 -25z"/>
</g>
</svg>
