<?xml version="1.0" standalone="no"?>
<!DOCTYPE svg PUBLIC "-//W3C//DTD SVG 20010904//EN"
 "http://www.w3.org/TR/2001/REC-SVG-20010904/DTD/svg10.dtd">
<svg version="1.0" xmlns="http://www.w3.org/2000/svg"
 width="500.000000pt" height="500.000000pt" viewBox="0 0 500.000000 500.000000"
 preserveAspectRatio="xMidYMid meet">

<g transform="translate(0.000000,500.000000) scale(0.100000,-0.100000)"
fill="#000000" stroke="none">
<path d="M0 2500 l0 -2500 2500 0 2500 0 0 2500 0 2500 -2500 0 -2500 0 0
-2500z m4500 0 l0 -2000 -1990 0 -1990 0 0 2000 0 2000 1990 0 1990 0 0 -2000z"/>
<path d="M647 4373 c-4 -3 -7 -847 -7 -1875 l0 -1868 1865 0 1865 0 0 1875 0
1875 -1858 0 c-1022 0 -1862 -3 -1865 -7z m1723 -753 l0 -200 -182 0 c-161 -1
-181 -2 -164 -15 10 -8 92 -58 182 -112 158 -95 164 -99 164 -130 l0 -33 -58
0 c-54 0 -67 5 -153 57 -52 31 -161 96 -244 145 l-149 88 -223 0 -223 0 0
-145 0 -145 -55 0 -55 0 0 345 0 345 580 0 580 0 0 -200z m362 -87 l3 -288
465 0 465 0 3 288 2 287 55 0 55 0 0 -345 0 -345 -580 0 -580 0 0 345 0 345
55 0 55 0 2 -287z m-1412 -788 l0 -145 224 0 224 0 245 145 c237 140 246 145
301 145 l56 0 0 -34 c0 -34 -2 -35 -226 -168 -124 -73 -226 -137 -226 -143 -1
-5 101 -71 226 -145 221 -132 226 -135 226 -167 l0 -33 -57 0 c-56 0 -65 4
-302 145 l-245 145 -220 -2 -221 -3 -3 -142 -3 -143 -54 0 -55 0 0 345 0 345
55 0 55 0 0 -145z m2460 -200 l0 -345 -55 0 -54 0 -3 143 -3 142 -467 3 -468
2 0 -145 0 -145 -55 0 -55 0 0 345 0 345 580 0 580 0 0 -345z m-2152 -731
c136 -81 254 -151 262 -156 15 -10 100 38 437 241 92 55 107 61 158 61 l55 0
0 -345 0 -345 -55 0 -55 0 0 275 c0 151 -2 275 -5 275 -2 0 -120 -69 -261
-154 l-258 -153 -95 57 c-334 199 -420 250 -425 250 -3 0 -6 -124 -6 -275 l0
-275 -55 0 -55 0 0 345 0 345 55 0 c53 0 65 -5 303 -146z m2082 86 l0 -60
-200 0 -200 0 0 -230 0 -230 200 0 200 0 0 -55 0 -55 -460 0 -460 0 0 55 0 55
200 0 200 0 0 230 0 230 -200 0 -200 0 0 60 0 60 460 0 460 0 0 -60z"/>
<path d="M1320 3615 l0 -85 468 2 467 3 3 83 4 82 -471 0 -471 0 0 -85z"/>
<path d="M2730 2685 l0 -85 468 2 467 3 3 83 3 82 -471 0 -470 0 0 -85z"/>
</g>
</svg>
