<svg width="50" height="50" viewBox="0 0 50 50" fill="none" xmlns="http://www.w3.org/2000/svg">
<rect width="50" height="50" fill="#B3B3B3"/>
<path d="M0 25V50H25H50V25V1.11759e-06H25H0V25ZM45 25V45H25.1H5.2V25V5H25.1H45V25Z" fill="black"/>
<path d="M6.47002 6.27C6.43002 6.3 6.40002 14.74 6.40002 25.02V43.7H25.05H43.7V24.95V6.2H25.12C14.9 6.2 6.50002 6.23 6.47002 6.27ZM23.7 13.8V15.8H21.88C20.27 15.81 20.07 15.82 20.24 15.95C20.34 16.03 21.16 16.53 22.06 17.07C23.64 18.02 23.7 18.06 23.7 18.37V18.7H23.12C22.58 18.7 22.45 18.65 21.59 18.13C21.07 17.82 19.98 17.17 19.15 16.68L17.66 15.8H15.43H13.2V17.25V18.7H12.65H12.1V15.25V11.8H17.9H23.7V13.8ZM27.32 14.67L27.35 17.55H32H36.65L36.68 14.67L36.7 11.8H37.25H37.8V15.25V18.7H32H26.2V15.25V11.8H26.75H27.3L27.32 14.67ZM13.2 22.55V24H15.44H17.68L20.13 22.55C22.5 21.15 22.59 21.1 23.14 21.1H23.7V21.44C23.7 21.78 23.68 21.79 21.44 23.12C20.2 23.85 19.18 24.49 19.18 24.55C19.17 24.6 20.19 25.26 21.44 26C23.65 27.32 23.7 27.35 23.7 27.67V28H23.13C22.57 28 22.48 27.96 20.11 26.55L17.66 25.1L15.46 25.12L13.25 25.15L13.22 26.57L13.19 28H12.65H12.1V24.55V21.1H12.65H13.2V22.55ZM37.8 24.55V28H37.25H36.71L36.68 26.57L36.65 25.15L31.98 25.12L27.3 25.1V26.55V28H26.75H26.2V24.55V21.1H32H37.8V24.55ZM16.28 31.86C17.64 32.67 18.82 33.37 18.9 33.42C19.05 33.52 19.9 33.04 23.27 31.01C24.19 30.46 24.34 30.4 24.85 30.4H25.4V33.85V37.3H24.85H24.3V34.55C24.3 33.04 24.28 31.8 24.25 31.8C24.23 31.8 23.05 32.49 21.64 33.34L19.06 34.87L18.11 34.3C14.77 32.31 13.91 31.8 13.86 31.8C13.83 31.8 13.8 33.04 13.8 34.55V37.3H13.25H12.7V33.85V30.4H13.25C13.78 30.4 13.9 30.45 16.28 31.86ZM37.1 31V31.6H35.1H33.1V33.9V36.2H35.1H37.1V36.75V37.3H32.5H27.9V36.75V36.2H29.9H31.9V33.9V31.6H29.9H27.9V31V30.4H32.5H37.1V31Z" fill="black"/>
<path d="M13.2 13.85V14.7L17.88 14.68L22.55 14.65L22.58 13.82L22.62 13H17.91H13.2V13.85Z" fill="black"/>
<path d="M27.3 23.15V24L31.98 23.98L36.65 23.95L36.68 23.12L36.71 22.3H32H27.3V23.15Z" fill="black"/>
</svg>
